<svg width="512" height="512" viewBox="0 0 512 512" fill="none" xmlns="http://www.w3.org/2000/svg">
<mask id="mask0_785_21248" style="mask-type:luminance" maskUnits="userSpaceOnUse" x="0" y="0" width="512" height="512">
<path d="M511.888 0H0V511.888H511.888V0Z" fill="white"/>
</mask>
<g mask="url(#mask0_785_21248)">
<mask id="mask1_785_21248" style="mask-type:luminance" maskUnits="userSpaceOnUse" x="0" y="0" width="512" height="512">
<path d="M511.888 0H0V511.888H511.888V0Z" fill="white"/>
</mask>
<g mask="url(#mask1_785_21248)">
<path d="M130.257 453.368L98.0761 472.082C89.3813 477.05 81.9894 477.587 75.723 473.976C69.6149 470.456 66.4203 464.058 66.2651 454.533H66.2932V417.228L98.0747 435.503L99.1824 436.139V435.287L130.257 417.216V453.368ZM33.6657 348.249C41.556 343.683 48.4317 343.018 54.4126 346.024L55.2719 346.524L55.2734 346.526C61.5383 350.136 64.7417 356.776 64.7417 366.709V415.524L64.0333 415.931L64.7417 416.337V453.794C64.7417 460.655 66.2325 466.165 69.2762 470.249L43.134 455.048L43.1311 455.046L42.5543 454.697C36.6695 451.016 33.6657 444.485 33.6657 434.861V348.249ZM97.7034 433.582L67.0001 415.929L97.7034 398.278V433.582ZM129.526 415.929L99.1824 433.576V398.285L129.526 415.929ZM57.7566 302.525C62.5765 302.299 67.0341 302.756 71.1294 303.883C78.0273 306.042 83.8381 310.161 88.5797 316.235C94.6479 324.011 97.7034 334.524 97.7034 347.777V396.571L66.2932 414.632V366.709C66.2932 356.449 62.9625 349.206 56.0868 345.245C55.7644 345.058 55.4375 344.885 55.1107 344.72L33.7396 332.291V310.301C33.9896 310.155 34.241 310.011 34.4909 309.871C35.649 309.219 36.7967 308.609 37.9355 308.04C44.7742 304.653 51.3867 302.822 57.7566 302.525ZM48.9449 342.843C44.2359 342.285 39.1571 343.528 33.7396 346.508V334.002L48.9449 342.843ZM32.1867 310.343V331.387L23.4889 326.329C23.4789 326.323 23.4687 326.319 23.4586 326.313L22.7176 327.593H22.7191V327.595C28.7082 331.047 31.8954 337.266 32.1645 346.486L0.739746 328.419V292.261L32.1867 310.343ZM32.1867 333.1V337.335C31.4472 335.073 30.4297 333.066 29.1267 331.319L32.1867 333.1ZM24.8349 283.593C27.386 283.461 29.8366 283.529 32.1867 283.791V308.637L1.485 290.985C9.58337 286.395 17.3728 283.942 24.8306 283.593H24.8349ZM33.7396 283.992C37.7698 284.598 41.4894 285.795 44.8984 287.555L45.456 287.849L53.6022 292.533C47.2145 299.029 40.5932 304.375 33.7396 308.561V283.992ZM70.1858 302.066C68.5811 301.632 66.9232 301.293 65.212 301.055C58.0524 300.055 50.4638 301.178 42.4567 304.381C46.7146 301.141 50.872 297.445 54.9288 293.295L70.1858 302.066ZM130.257 93.6727L98.0717 112.39L97.7034 112.605V196.328C97.7034 206.336 95.9376 216.877 92.4309 227.913C88.8844 238.96 84.0792 249.749 77.9075 260.321C71.7313 270.859 64.7846 280.431 56.9905 288.964C56.2214 289.807 55.4435 290.63 54.6655 291.439L46.1748 286.557L46.157 286.548L45.5758 286.24C41.9509 284.369 38.002 283.115 33.7396 282.498V272.474C35.3576 271.529 36.9401 270.465 38.4886 269.282C40.8535 267.481 43.1355 265.395 45.3332 263.029C46.8093 261.447 48.2542 259.744 49.6592 257.916L49.6607 257.913C54.6005 251.438 58.6439 244.365 61.6758 236.727C64.7092 229.09 66.2577 221.943 66.2577 215.259V131.962C66.2577 125.278 67.7174 118.244 70.7301 110.858L70.7315 110.857C73.7131 103.497 77.7226 96.5789 82.7289 90.2119L82.7304 90.2104C87.7323 83.8109 93.0802 79.0206 98.8053 75.8127L98.8156 75.8068L130.257 57.5208V93.6727ZM32.1867 272.48V282.302C30.2715 282.096 28.2955 282.016 26.259 282.06L24.7585 282.117C17.0174 282.479 8.998 285.02 0.739746 289.702V254.399L32.1867 272.48ZM129.489 56.2341L98.0406 74.5245C92.1129 77.8847 86.623 82.8171 81.528 89.2979C76.4359 95.7758 72.3939 102.814 69.325 110.299L69.3236 110.302C66.2887 117.798 64.7417 125.019 64.7417 131.962V215.259C64.7417 221.714 63.245 228.674 60.2634 236.181C57.2818 243.692 53.3433 250.647 48.4494 257.013L48.4465 257.017C47.0947 258.801 45.703 260.456 44.2817 261.989C42.084 264.347 39.8137 266.416 37.4681 268.198C35.9936 269.313 34.4909 270.313 32.9587 271.197L1.50955 253.116C7.00953 249.779 12.062 245.061 16.7339 238.984L16.7354 238.981C21.6739 232.508 25.7517 225.438 28.9315 217.807C32.1142 210.168 33.7396 203.019 33.7396 196.328V113.029C33.7396 106.346 35.2008 99.3135 38.2135 91.9275V91.926C41.1951 84.5667 45.1706 77.6806 50.0334 71.2708C54.8859 64.8757 60.1569 60.0868 65.879 56.8804L65.8864 56.876L98.4415 38.1582L129.489 56.2341Z" fill="#0056C9" stroke="white"/>
<path d="M129.526 415.929L98.4414 434.007L66.9985 415.929L98.4399 397.854L129.526 415.929Z" fill="url(#paint0_linear_785_21248)" stroke="white"/>
<path d="M24.8348 283.595C32.6525 283.192 39.5252 284.652 45.4381 287.839V287.841L70.3217 302.148C66.3995 301.205 62.183 300.839 57.6869 301.049C49.7138 301.422 41.4449 304.106 32.9231 309.062L1.48486 290.987C9.58324 286.397 17.3725 283.944 24.8305 283.595H24.8348Z" fill="url(#paint1_linear_785_21248)" stroke="white"/>
<path d="M129.489 56.2341L98.0421 74.5245C92.1129 77.8847 86.623 82.8171 81.5295 89.2979C76.4374 95.7758 72.3939 102.814 69.325 110.299L69.3235 110.302C66.2872 117.798 64.7402 125.019 64.7402 131.962V215.259C64.7402 221.714 63.245 228.674 60.2649 236.181C57.2833 243.692 53.3448 250.647 48.4494 257.013L48.4465 257.017C43.699 263.276 38.5108 267.993 32.9602 271.197L1.50879 253.116C7.00877 249.779 12.0612 245.061 16.7331 238.984L16.7346 238.981C21.6732 232.508 25.7502 225.438 28.93 217.807C32.1127 210.168 33.7396 203.019 33.7396 196.328V113.029C33.7396 106.346 35.1993 99.3135 38.2135 91.9275L38.215 91.926C41.1951 84.5667 45.1705 77.6806 50.0334 71.2708C54.8844 64.8757 60.1569 60.0868 65.879 56.8804L65.8849 56.876L98.4399 38.1582L129.489 56.2341Z" fill="url(#paint2_linear_785_21248)" stroke="white"/>
<path d="M55.2721 346.526L55.2736 346.527C61.5385 350.137 64.7419 356.778 64.7419 366.71V453.795C64.7419 460.657 66.2327 466.168 69.2779 470.253L43.1342 455.049L43.1313 455.048L42.5545 454.699C36.6697 451.017 33.6659 444.486 33.6659 434.863V347.778C33.6659 340.916 32.1721 335.405 29.127 331.32L55.2721 346.526Z" fill="url(#paint3_linear_785_21248)" stroke="white"/>
<path d="M32.1867 272.481V346.5L0.739746 328.42V254.4L32.1867 272.481Z" fill="url(#paint4_linear_785_21248)" stroke="white"/>
<path d="M33.7397 310.302C45.0938 303.752 55.5072 301.194 65.0066 302.52C74.6494 303.866 82.4968 308.44 88.5813 316.236C94.6495 324.012 97.705 334.526 97.705 347.779V436.149L98.8157 435.503L130.257 417.218V453.37L98.0762 472.084C89.3814 477.053 81.9895 477.59 75.7232 473.978C69.615 470.458 66.4205 464.059 66.2652 454.534H66.2933V366.71C66.2933 356.451 62.9626 349.207 56.0869 345.246C49.507 341.454 42.0175 341.957 33.7397 346.511V310.302ZM130.257 93.6753L98.0718 112.392L97.705 112.606V196.329C97.705 206.337 95.9377 216.878 92.431 227.914C88.8845 238.96 84.0808 249.751 77.9091 260.322C71.7329 270.86 64.7847 280.432 56.9906 288.965C49.5647 297.095 41.8105 303.632 33.7397 308.562V272.475C39.487 269.119 44.7817 264.262 49.6593 257.917L49.6608 257.915C54.6006 251.44 58.6441 244.366 61.6759 236.728C64.7093 229.091 66.2578 221.945 66.2578 215.261V131.963C66.2578 125.279 67.7175 118.247 70.7302 110.861L70.7316 110.859C73.7118 103.5 77.7227 96.5815 82.729 90.2145L82.7305 90.2115C87.7324 83.8121 93.0803 79.0217 98.8054 75.8138L98.8157 75.8079L130.257 57.5234V93.6753Z" fill="url(#paint5_linear_785_21248)" stroke="white"/>
<path d="M195.385 133.847L194.088 134.597H196.146V412.762L164.699 394.68V116.203L195.385 133.847ZM197.625 348.757C199.22 353.639 202.11 357.335 206.354 359.781L229.073 372.843V394.68L197.625 412.762V348.757ZM328.526 62.1185C331.655 62.0919 334.581 62.8758 337.314 64.4509C343.58 68.061 346.781 74.7016 346.781 84.6358V289.094C346.781 295.777 345.319 302.847 342.307 310.194L342.305 310.199C339.325 317.597 335.387 324.48 330.49 330.848L330.487 330.853C325.636 337.246 320.326 342.035 314.638 345.244L314.634 345.247L261.997 375.537L261.992 375.541C253.563 380.503 246.285 381.041 240.017 377.43C233.842 373.871 230.645 367.37 230.555 357.671L315.372 308.665L315.742 308.452V103.992L316.483 103.565L315.37 102.926L283.617 84.6668L315.372 66.3439L315.378 66.341C320.116 63.5531 324.49 62.1614 328.526 62.1185ZM230.552 367.686C231.3 369.982 232.335 372.014 233.663 373.778L230.552 371.987V367.686ZM229.073 357.674V371.135L207.092 358.497C201.102 355.046 197.915 348.826 197.646 339.605L229.073 357.674ZM229.073 355.968L198.365 338.313L229.073 320.572V355.968ZM313.522 308.026L230.552 355.965V319.717L282.077 289.946L313.522 308.026ZM281.338 122.163L229.442 152.148L229.073 152.362V318.864L197.625 337.033V134.283L281.338 85.9817V122.163ZM314.263 306.745L282.817 288.665V123.016L314.263 104.847V306.745ZM282.453 47.4102C290.61 42.608 297.808 41.941 304.192 45.1991L304.808 45.526L331.04 60.7815C330.209 60.678 329.364 60.6292 328.51 60.6381H328.473C324.132 60.6854 319.495 62.1777 314.59 65.0661L282.114 83.8031L281.338 83.3565V84.2527L196.867 132.992L165.442 114.924L282.446 47.4132L282.447 47.4146L282.453 47.4102ZM313.52 103.567L282.817 121.307V85.9136L313.52 103.567Z" fill="#0056C9" stroke="white"/>
<path d="M314.262 103.994V306.747L282.816 288.667V85.9141L314.262 103.994Z" fill="url(#paint6_linear_785_21248)" stroke="white"/>
<path d="M313.522 308.026L229.811 356.394L198.365 338.314L282.078 289.947L313.522 308.026Z" fill="url(#paint7_linear_785_21248)" stroke="white"/>
<path d="M229.077 357.673C229.138 364.377 230.648 369.768 233.665 373.775L207.092 358.494C201.102 355.042 197.914 348.821 197.646 339.602L229.077 357.673Z" fill="url(#paint8_linear_785_21248)" stroke="white"/>
<path d="M282.453 47.4102C290.609 42.608 297.807 41.941 304.192 45.1991L304.807 45.526L331.04 60.7815C325.985 60.1545 320.499 61.6083 314.628 65.0661L196.884 133.002L165.441 114.924L282.445 47.4132L282.447 47.4146L282.453 47.4102Z" fill="url(#paint9_linear_785_21248)" stroke="white"/>
<path d="M196.146 134.285V412.763L164.699 394.681V116.203L196.146 134.285Z" fill="url(#paint10_linear_785_21248)" stroke="white"/>
<path d="M315.341 66.3406C323.768 61.3802 331.046 60.8404 337.312 64.452C343.579 68.0622 346.781 74.7027 346.781 84.6369V289.094C346.781 295.777 345.32 302.847 342.307 310.194L342.304 310.199C339.324 317.598 335.385 324.481 330.488 330.849L330.485 330.852C325.634 337.246 320.326 342.035 314.638 345.244L314.632 345.247L261.997 375.538L261.992 375.541C253.563 380.503 246.285 381.041 240.017 377.429C233.842 373.871 230.645 367.369 230.555 357.67L315.372 308.665L315.742 308.453V102.285L314.632 102.927L229.441 152.149L229.073 152.362V394.68L197.625 412.762V134.262L315.333 66.3436L315.335 66.3451L315.341 66.3406Z" fill="url(#paint11_linear_785_21248)" stroke="white"/>
<path d="M412.705 437.184V473.34L381.259 455.259V419.102L412.705 437.184ZM511.148 265.914C505.364 269.268 499.997 274.125 495.011 280.468C490.022 286.813 486.046 293.696 483 301.01H482.919L482.731 301.473C479.695 308.968 478.148 316.19 478.148 323.131V398.857C478.148 405.314 476.688 412.274 473.673 419.777V419.78C470.692 427.285 466.681 434.239 461.677 440.605L461.675 440.606C456.669 447.01 451.427 451.805 445.994 455.013L414.184 473.302V437.184L446.739 418.465L447.11 418.253V342.1C447.11 332.713 448.598 322.893 451.584 312.575L452.201 310.505C455.598 299.463 460.362 288.638 466.534 278.106C472.708 267.532 479.656 257.997 487.452 249.463C494.91 241.296 502.801 234.737 511.148 229.8V265.914ZM444.856 417.805L413.413 435.884L382.002 417.824L413.445 399.746L444.856 417.805ZM457.123 227.999L465.708 232.937V232.936L465.713 232.939L465.812 232.767C469.873 235.076 474.424 236.552 479.463 237.189C486.661 238.099 494.226 237.015 502.178 233.967C496.682 238.059 491.402 242.882 486.359 248.43C478.982 256.506 472.327 265.498 466.427 275.344L465.257 277.324C459.031 287.986 454.218 298.877 450.786 310.033C447.567 320.495 445.853 330.545 445.652 340.148V340.186L445.631 342.063V416.545L414.184 398.465V323.169C414.184 313.159 415.951 302.619 419.458 291.581C423.005 280.533 427.771 269.741 433.797 259.167L433.798 259.168C439.822 248.637 446.806 239.069 454.709 230.537C455.509 229.673 456.315 228.827 457.123 227.999ZM510.382 228.499C510.237 228.585 510.089 228.669 509.944 228.756C499.041 234.615 488.974 236.901 479.649 235.722C471.51 234.693 464.722 231.407 459.256 225.856C465.636 219.602 472.216 214.459 478.97 210.438L510.382 228.499ZM459.931 54.5445C463.061 54.5178 465.986 55.3032 468.719 56.8783L468.728 56.8605C468.739 56.8664 468.748 56.8709 468.756 56.8768C475.021 60.4869 478.222 67.1275 478.222 77.0603V171.29C469.948 176.055 462.79 176.53 456.614 172.97L455.873 174.249L488.428 193.181L488.431 193.183C495.03 196.987 502.645 196.466 511.185 191.88V227.254L479.331 208.938L478.957 208.725L478.587 208.943C471.593 213.062 464.803 218.347 458.24 224.779C457.497 223.963 456.781 223.104 456.091 222.199C455.841 221.869 455.597 221.533 455.356 221.194C454.268 219.609 453.261 217.904 452.338 216.077C450.904 213.207 449.762 210.067 448.915 206.661C447.74 201.869 447.149 196.536 447.149 190.649V94.7147L446.389 95.1495L414.947 77.0706L446.778 58.7699L446.782 58.7669C451.521 55.9776 455.895 54.5859 459.931 54.5445ZM445.631 190.649C445.631 196.797 446.288 202.416 447.597 207.484C449.009 213.029 451.197 217.893 454.168 222.074C455.097 223.425 456.088 224.694 457.136 225.878C457.047 225.967 456.956 226.056 456.867 226.146L433.525 212.726C427.579 209.281 422.885 204.09 419.415 197.149V197.148L419.091 196.49C415.808 189.657 414.184 181.419 414.184 171.717V115.373L445.631 97.291V190.649ZM510.378 190.635C502.444 194.869 495.619 195.327 489.759 192.229L489.169 191.902L489.137 191.883C483.167 188.428 479.989 182.212 479.721 173.008L510.378 190.635ZM478.241 172.977C478.414 179.257 479.903 184.343 482.759 188.174L462.925 176.641C467.665 177.226 472.781 175.984 478.241 172.977ZM412.705 77.4891V113.645L381.259 95.5636V59.4073L412.705 77.4891ZM444.905 96.0029L414.222 113.644V78.3588L444.905 96.0029ZM413.82 39.8361C422.247 34.8742 429.525 34.3344 435.793 37.946L462.307 53.1897C461.518 53.098 460.721 53.0551 459.914 53.064H459.878C455.537 53.1113 450.902 54.6036 445.995 57.492L413.445 76.2069L382.002 58.1295L413.813 39.8406L413.82 39.8361Z" fill="#0056C9" stroke="white"/>
<path d="M510.381 190.635C502.177 195.014 495.161 195.356 489.17 191.904H489.168L462.924 176.642C467.872 177.255 473.229 175.872 478.962 172.572L510.381 190.635Z" fill="url(#paint12_linear_785_21248)" stroke="white"/>
<path d="M413.82 39.8361C422.248 34.8742 429.526 34.3344 435.793 37.946L462.316 53.1956C457.287 52.5981 451.833 54.0549 445.995 57.492L413.445 76.2069L382.002 58.1295L413.813 39.8406L413.82 39.8361Z" fill="url(#paint13_linear_785_21248)" stroke="white"/>
<path d="M510.416 228.518C501.918 233.541 493.91 240.204 486.361 248.468C478.983 256.546 472.361 265.504 466.435 275.375L465.259 277.36C459.42 287.322 454.827 297.551 451.447 307.982L450.786 310.072C447.353 321.267 445.632 331.92 445.632 342.101V416.547L414.185 398.466V323.169C414.186 313.16 415.952 302.62 419.459 291.583C423.005 280.535 427.772 269.743 433.797 259.168L433.799 259.17C439.822 248.638 446.806 239.069 454.71 230.537C462.498 222.129 470.6 215.424 478.971 210.439L510.416 228.518Z" fill="url(#paint14_linear_785_21248)" stroke="white"/>
<path d="M444.923 417.825L413.445 435.902L382.002 417.825L413.445 399.746L444.923 417.825Z" fill="url(#paint15_linear_785_21248)" stroke="white"/>
<path d="M412.705 437.185V473.342L381.259 455.26V419.104L412.705 437.185Z" fill="url(#paint16_linear_785_21248)" stroke="white"/>
<path d="M445.632 96.4202V190.65C445.632 200.831 447.429 209.563 451.018 216.743L451.02 216.746C452.965 220.594 455.275 223.941 457.956 226.773L433.526 212.728C427.581 209.283 422.885 204.09 419.416 197.151L419.092 196.491C415.809 189.659 414.185 181.421 414.185 171.719V78.3398L445.632 96.4202Z" fill="url(#paint17_linear_785_21248)" stroke="white"/>
<path d="M412.705 77.49V113.646L381.259 95.5645V59.4082L412.705 77.49Z" fill="url(#paint18_linear_785_21248)" stroke="white"/>
<path d="M511.149 265.914C505.364 269.268 499.997 274.127 495.012 280.47C490.023 286.815 486.045 293.698 482.999 301.011H482.92L482.732 301.473C479.695 308.968 478.15 316.19 478.148 323.131V398.858C478.148 405.315 476.69 412.274 473.675 419.777L473.673 419.78C470.693 427.285 466.682 434.239 461.677 440.606C456.674 447.007 451.434 451.802 446.003 455.01L414.185 473.303V437.147L446.74 418.429L447.111 418.216V342.063C447.111 332.05 448.804 321.508 452.201 310.469C455.386 300.116 459.772 289.988 465.394 280.053L466.536 278.069C472.673 267.532 479.658 257.961 487.453 249.426V249.425C494.728 241.424 502.48 234.961 510.647 230.059C510.814 229.969 510.981 229.88 511.149 229.789V265.914ZM446.782 58.7669C455.211 53.805 462.489 53.2666 468.757 56.8782C475.022 60.4884 478.224 67.129 478.224 77.0617V171.718C478.224 181.978 481.556 189.221 488.432 193.183C495.031 196.987 502.646 196.469 511.186 191.883V228.03C510.77 228.27 510.354 228.511 509.942 228.759C499.04 234.616 488.973 236.901 479.65 235.722C469.859 234.484 462.022 229.984 456.091 222.199C450.168 214.421 447.149 203.942 447.149 190.649V94.7146L446.04 95.3521L414.223 113.645V77.4891L446.778 58.7713L446.782 58.7669Z" fill="url(#paint19_linear_785_21248)" stroke="white"/>
</g>
</g>
<defs>
<linearGradient id="paint0_linear_785_21248" x1="90.0423" y1="430.309" x2="120.434" y2="377.904" gradientUnits="userSpaceOnUse">
<stop stop-color="#2D8CFF"/>
<stop offset="1" stop-color="#78D7FF"/>
</linearGradient>
<linearGradient id="paint1_linear_785_21248" x1="32.7442" y1="309.973" x2="46.0401" y2="287.045" gradientUnits="userSpaceOnUse">
<stop stop-color="#2D8CFF"/>
<stop offset="1" stop-color="#78D7FF"/>
</linearGradient>
<linearGradient id="paint2_linear_785_21248" x1="-2.5915" y1="251.623" x2="134.167" y2="15.7977" gradientUnits="userSpaceOnUse">
<stop stop-color="#78D7FF"/>
<stop offset="0.29021" stop-color="#2D8CFF"/>
<stop offset="0.58" stop-color="#2D8CFF"/>
<stop offset="0.814685" stop-color="#C5FFFF"/>
<stop offset="1" stop-color="#C5FFFF"/>
</linearGradient>
<linearGradient id="paint3_linear_785_21248" x1="30.0247" y1="433.366" x2="73.7119" y2="358.033" gradientUnits="userSpaceOnUse">
<stop stop-color="#3392FF"/>
<stop offset="1" stop-color="#2D8CFF"/>
</linearGradient>
<linearGradient id="paint4_linear_785_21248" x1="17.9539" y1="297.594" x2="35.0485" y2="268.115" gradientUnits="userSpaceOnUse">
<stop stop-color="#2D8CFF"/>
<stop offset="1" stop-color="#2D8CFF"/>
</linearGradient>
<linearGradient id="paint5_linear_785_21248" x1="149.639" y1="347.096" x2="36.4285" y2="150.139" gradientUnits="userSpaceOnUse">
<stop stop-color="#2685F8"/>
<stop offset="1" stop-color="#78D7FF"/>
</linearGradient>
<linearGradient id="paint6_linear_785_21248" x1="253.57" y1="272.956" x2="356.139" y2="96.0864" gradientUnits="userSpaceOnUse">
<stop stop-color="#2D8CFF"/>
<stop offset="1" stop-color="#3392FF"/>
</linearGradient>
<linearGradient id="paint7_linear_785_21248" x1="234.417" y1="360.235" x2="283.801" y2="275.076" gradientUnits="userSpaceOnUse">
<stop stop-color="#2D8CFF"/>
<stop offset="1" stop-color="#78D7FF"/>
</linearGradient>
<linearGradient id="paint8_linear_785_21248" x1="214.728" y1="363.394" x2="219.848" y2="354.563" gradientUnits="userSpaceOnUse">
<stop stop-color="#2D8CFF"/>
<stop offset="1" stop-color="#3392FF"/>
</linearGradient>
<linearGradient id="paint9_linear_785_21248" x1="218.202" y1="146.427" x2="286.581" y2="28.5149" gradientUnits="userSpaceOnUse">
<stop stop-color="#C5FFFF"/>
<stop offset="1" stop-color="#C5FFFF"/>
</linearGradient>
<linearGradient id="paint10_linear_785_21248" x1="120.786" y1="369.957" x2="261.344" y2="127.581" gradientUnits="userSpaceOnUse">
<stop stop-color="#3392FF"/>
<stop offset="1" stop-color="#2D8CFF"/>
</linearGradient>
<linearGradient id="paint11_linear_785_21248" x1="322.776" y1="332.305" x2="209.565" y2="135.346" gradientUnits="userSpaceOnUse">
<stop offset="0.13986" stop-color="#2685F8"/>
<stop offset="0.872378" stop-color="#78D7FF"/>
</linearGradient>
<linearGradient id="paint12_linear_785_21248" x1="480.543" y1="188.041" x2="488.14" y2="174.94" gradientUnits="userSpaceOnUse">
<stop stop-color="#1C7BEE"/>
<stop offset="1" stop-color="#1C7BEE"/>
</linearGradient>
<linearGradient id="paint13_linear_785_21248" x1="413.323" y1="77.1623" x2="432.318" y2="44.4091" gradientUnits="userSpaceOnUse">
<stop stop-color="#C5FFFF"/>
<stop offset="1" stop-color="#C5FFFF"/>
</linearGradient>
<linearGradient id="paint14_linear_785_21248" x1="407.228" y1="395.468" x2="521.194" y2="198.946" gradientUnits="userSpaceOnUse">
<stop stop-color="#2D8CFF"/>
<stop offset="0.33" stop-color="#2D8CFF"/>
<stop offset="0.51" stop-color="#2D8CFF"/>
<stop offset="1" stop-color="#3392FF"/>
</linearGradient>
<linearGradient id="paint15_linear_785_21248" x1="405.439" y1="432.291" x2="433.931" y2="383.161" gradientUnits="userSpaceOnUse">
<stop stop-color="#78D7FF"/>
<stop offset="1" stop-color="#2D8CFF"/>
</linearGradient>
<linearGradient id="paint16_linear_785_21248" x1="388.749" y1="460.461" x2="407.743" y2="427.707" gradientUnits="userSpaceOnUse">
<stop stop-color="#3392FF"/>
<stop offset="1" stop-color="#2D8CFF"/>
</linearGradient>
<linearGradient id="paint17_linear_785_21248" x1="412.71" y1="201.72" x2="475.39" y2="93.6323" gradientUnits="userSpaceOnUse">
<stop stop-color="#3392FF"/>
<stop offset="0.335664" stop-color="#2D8CFF"/>
<stop offset="1" stop-color="#3392FF"/>
</linearGradient>
<linearGradient id="paint18_linear_785_21248" x1="388.74" y1="100.75" x2="407.734" y2="67.9951" gradientUnits="userSpaceOnUse">
<stop stop-color="#2D8CFF"/>
<stop offset="1" stop-color="#2D8CFF"/>
</linearGradient>
<linearGradient id="paint19_linear_785_21248" x1="495.986" y1="357.364" x2="382.776" y2="160.407" gradientUnits="userSpaceOnUse">
<stop stop-color="#2685F8"/>
<stop offset="0.346154" stop-color="#78D7FF"/>
</linearGradient>
</defs>
</svg>
