<svg width="512" height="512" viewBox="0 0 512 512" fill="none" xmlns="http://www.w3.org/2000/svg">
<path d="M504 8V504H8V8H504Z" fill="white"/>
<path d="M504 8V504H8V8H504Z" stroke="url(#paint0_linear_774_21493)" stroke-width="16"/>
<g clip-path="url(#clip0_774_21493)">
<g clip-path="url(#clip1_774_21493)">
<path d="M171.129 389.545L149.37 402.199C143.491 405.558 138.493 405.921 134.256 403.479C130.126 401.099 127.966 396.773 127.861 390.333H127.88V365.109L149.369 377.466L150.118 377.896V377.32L171.129 365.101V389.545ZM105.819 318.469C111.154 315.382 115.803 314.932 119.847 316.965L120.428 317.303L120.429 317.304C124.665 319.745 126.831 324.235 126.831 330.951V363.957L126.352 364.232L126.831 364.507V389.833C126.831 394.472 127.839 398.198 129.897 400.959L112.221 390.681L112.219 390.68L111.829 390.444C107.85 387.955 105.819 383.539 105.819 377.032V318.469ZM149.118 376.167L128.358 364.231L149.118 352.296V376.167ZM170.635 364.231L150.118 376.163V352.301L170.635 364.231ZM122.108 287.553C125.367 287.4 128.381 287.709 131.15 288.471C135.814 289.931 139.743 292.716 142.949 296.823C147.052 302.081 149.118 309.189 149.118 318.15V351.142L127.88 363.354V330.951C127.88 324.014 125.628 319.116 120.979 316.438C120.761 316.312 120.54 316.195 120.319 316.083L105.869 307.679V292.811C106.038 292.712 106.208 292.615 106.377 292.52C107.16 292.079 107.936 291.667 108.706 291.282C113.33 288.992 117.801 287.754 122.108 287.553ZM116.15 314.814C112.966 314.437 109.532 315.277 105.869 317.292V308.836L116.15 314.814ZM104.819 292.839V307.068L98.938 303.648C98.9312 303.644 98.9243 303.641 98.9175 303.637L98.4165 304.503H98.4175V304.504C102.467 306.838 104.622 311.043 104.804 317.277L83.5562 305.061V280.613L104.819 292.839ZM104.819 308.226V311.09C104.319 309.56 103.631 308.203 102.75 307.022L104.819 308.226ZM99.8481 274.752C101.573 274.663 103.23 274.709 104.819 274.886V291.686L84.0601 279.75C89.5358 276.647 94.8026 274.988 99.8452 274.752H99.8481ZM105.869 275.022C108.594 275.432 111.109 276.241 113.414 277.431L113.791 277.63L119.299 280.797C114.98 285.189 110.503 288.804 105.869 291.634V275.022ZM130.512 287.243C129.427 286.949 128.306 286.72 127.149 286.559C122.308 285.883 117.177 286.642 111.763 288.808C114.642 286.617 117.453 284.118 120.196 281.312L130.512 287.243ZM171.129 146.338L149.367 158.994L149.118 159.139V215.748C149.118 222.515 147.924 229.642 145.553 237.104C143.155 244.574 139.906 251.869 135.733 259.017C131.557 266.142 126.86 272.614 121.59 278.384C121.07 278.954 120.544 279.51 120.018 280.057L114.277 276.756H114.278L114.265 276.75L113.872 276.542C111.421 275.277 108.751 274.429 105.869 274.012V267.234C106.963 266.595 108.033 265.876 109.08 265.076C110.679 263.858 112.222 262.448 113.708 260.848C114.706 259.778 115.683 258.627 116.633 257.391L116.634 257.389C119.974 253.011 122.708 248.228 124.758 243.064C126.809 237.9 127.856 233.068 127.856 228.548V172.227C127.856 167.708 128.843 162.952 130.88 157.958L130.881 157.957C132.897 152.981 135.608 148.303 138.993 143.998L138.994 143.997C142.376 139.67 145.992 136.431 149.863 134.262L149.87 134.258L171.129 121.894V146.338ZM104.819 267.238V273.879C103.524 273.74 102.188 273.686 100.811 273.716L99.7964 273.754C94.5623 273.999 89.14 275.717 83.5562 278.883V255.013L104.819 267.238ZM170.61 121.024L149.346 133.391C145.338 135.663 141.626 138.998 138.181 143.38C134.738 147.76 132.005 152.519 129.93 157.58L129.929 157.582C127.877 162.65 126.831 167.533 126.831 172.227V228.548C126.831 232.913 125.819 237.619 123.803 242.695C121.787 247.773 119.124 252.476 115.815 256.78L115.813 256.783C114.899 257.989 113.958 259.108 112.997 260.145C111.511 261.739 109.976 263.138 108.39 264.343C107.393 265.097 106.377 265.773 105.341 266.371L84.0767 254.145C87.7955 251.889 91.2117 248.699 94.3706 244.59L94.3716 244.588C97.7108 240.211 100.468 235.431 102.618 230.271C104.77 225.106 105.869 220.272 105.869 215.748V159.426C105.869 154.907 106.857 150.152 108.894 145.158V145.157C110.91 140.181 113.598 135.525 116.886 131.191C120.167 126.867 123.731 123.629 127.6 121.461L127.605 121.458L149.617 108.802L170.61 121.024Z" fill="#0056C9" stroke="white"/>
<path d="M170.635 364.231L149.617 376.454L128.357 364.231L149.616 352.009L170.635 364.231Z" fill="url(#paint1_linear_774_21493)" stroke="white"/>
<path d="M99.8481 274.751C105.134 274.479 109.781 275.466 113.779 277.621V277.622L130.604 287.296C127.952 286.658 125.101 286.411 122.061 286.553C116.67 286.805 111.079 288.62 105.317 291.971L84.0601 279.749C89.5358 276.646 94.8025 274.987 99.8452 274.751H99.8481Z" fill="url(#paint2_linear_774_21493)" stroke="white"/>
<path d="M170.61 121.024L149.347 133.391C145.338 135.663 141.626 138.998 138.182 143.38C134.739 147.76 132.005 152.519 129.93 157.58L129.929 157.582C127.876 162.65 126.83 167.533 126.83 172.227V228.548C126.83 232.913 125.819 237.619 123.804 242.695C121.788 247.773 119.125 252.476 115.815 256.78L115.813 256.783C112.603 261.015 109.095 264.204 105.342 266.371L84.0762 254.145C87.795 251.889 91.2112 248.699 94.3701 244.59L94.3711 244.588C97.7103 240.211 100.467 235.431 102.617 230.271C104.769 225.106 105.869 220.272 105.869 215.748V159.426C105.869 154.907 106.856 150.152 108.894 145.158L108.895 145.157C110.91 140.181 113.598 135.525 116.886 131.191C120.166 126.867 123.731 123.629 127.6 121.461L127.604 121.458L149.616 108.802L170.61 121.024Z" fill="url(#paint3_linear_774_21493)" stroke="white"/>
<path d="M120.428 317.303L120.429 317.304C124.665 319.745 126.831 324.235 126.831 330.951V389.833C126.831 394.473 127.839 398.199 129.898 400.961L112.221 390.681L112.219 390.68L111.829 390.444C107.85 387.955 105.819 383.539 105.819 377.032V318.15C105.819 313.51 104.809 309.784 102.75 307.022L120.428 317.303Z" fill="url(#paint4_linear_774_21493)" stroke="white"/>
<path d="M104.819 267.237V317.285L83.5562 305.06V255.012L104.819 267.237Z" fill="url(#paint5_linear_774_21493)" stroke="white"/>
<path d="M105.869 292.811C113.546 288.382 120.587 286.652 127.01 287.549C133.53 288.459 138.836 291.552 142.95 296.823C147.053 302.081 149.119 309.19 149.119 318.151V377.902L149.87 377.465L171.129 365.102V389.546L149.37 402.199C143.491 405.559 138.493 405.922 134.256 403.48C130.126 401.1 127.966 396.773 127.861 390.333H127.88V330.951C127.88 324.014 125.628 319.116 120.979 316.438C116.53 313.874 111.466 314.214 105.869 317.293V292.811ZM171.129 146.339L149.367 158.994L149.119 159.139V215.748C149.119 222.515 147.924 229.642 145.553 237.104C143.155 244.573 139.907 251.869 135.734 259.017C131.558 266.142 126.86 272.614 121.59 278.384C116.569 283.881 111.326 288.301 105.869 291.634V267.234C109.755 264.965 113.335 261.681 116.633 257.391L116.634 257.389C119.974 253.011 122.708 248.228 124.758 243.064C126.809 237.9 127.856 233.068 127.856 228.549V172.227C127.856 167.708 128.843 162.953 130.88 157.959L130.881 157.958C132.896 152.982 135.608 148.304 138.993 143.999L138.994 143.997C142.376 139.67 145.992 136.431 149.863 134.262L149.87 134.258L171.129 121.895V146.339Z" fill="url(#paint6_linear_774_21493)" stroke="white"/>
<path d="M215.165 173.5L214.288 174.007H215.68V362.088L194.417 349.862V161.57L215.165 173.5ZM216.68 318.811C217.758 322.112 219.712 324.611 222.582 326.265H222.583L237.943 335.097V349.862L216.68 362.088V318.811ZM305.188 125.001C307.304 124.983 309.282 125.513 311.13 126.578C315.367 129.019 317.531 133.509 317.531 140.226V278.47C317.531 282.989 316.543 287.769 314.506 292.737L314.505 292.74C312.49 297.742 309.827 302.396 306.516 306.702L306.514 306.705C303.234 311.028 299.644 314.266 295.798 316.436L295.795 316.438L260.205 336.918L260.201 336.921C254.502 340.276 249.581 340.64 245.343 338.198C241.168 335.792 239.006 331.396 238.945 324.838L296.294 291.703L296.544 291.559V153.314L297.045 153.025L296.293 152.593L274.823 140.247L296.294 127.858L296.298 127.856C299.502 125.971 302.459 125.03 305.188 125.001ZM238.943 331.61C239.449 333.162 240.149 334.536 241.047 335.729L238.943 334.518V331.61ZM237.943 324.84V333.942L223.081 325.397C219.031 323.063 216.876 318.858 216.694 312.623L237.943 324.84ZM237.943 323.687L217.18 311.749L237.943 299.754V323.687ZM295.043 291.271L238.943 323.685V299.176L273.782 279.046L295.043 291.271ZM273.282 165.6L238.193 185.874L237.943 186.019V298.599L216.68 310.884V173.795L273.282 141.136V165.6ZM295.544 290.405L274.282 278.18V166.177L295.544 153.892V290.405ZM274.036 115.056C279.551 111.809 284.418 111.358 288.735 113.561L289.151 113.782L306.888 124.097C306.326 124.027 305.755 123.994 305.177 124H305.152C302.217 124.032 299.082 125.041 295.765 126.994L273.807 139.663L273.282 139.361V139.967L216.167 172.922L194.919 160.705L274.031 115.058L274.032 115.059L274.036 115.056ZM295.042 153.026L274.282 165.021V141.09L295.042 153.026Z" fill="#0056C9" stroke="white"/>
<path d="M295.544 153.315V290.406L274.282 278.181V141.09L295.544 153.315Z" fill="url(#paint7_linear_774_21493)" stroke="white"/>
<path d="M295.043 291.271L238.442 323.975L217.18 311.75L273.782 279.047L295.043 291.271Z" fill="url(#paint8_linear_774_21493)" stroke="white"/>
<path d="M237.946 324.841C237.987 329.374 239.008 333.019 241.048 335.728L223.081 325.396H223.08C219.03 323.062 216.875 318.856 216.694 312.622L237.946 324.841Z" fill="url(#paint9_linear_774_21493)" stroke="white"/>
<path d="M274.036 115.056C279.551 111.809 284.418 111.358 288.735 113.561L289.151 113.782L306.888 124.097C303.47 123.673 299.761 124.656 295.791 126.994L216.179 172.929L194.919 160.705L274.031 115.058L274.032 115.059L274.036 115.056Z" fill="url(#paint10_linear_774_21493)" stroke="white"/>
<path d="M215.68 173.796V362.088L194.417 349.862V161.57L215.68 173.796Z" fill="url(#paint11_linear_774_21493)" stroke="white"/>
<path d="M296.273 127.856C301.971 124.502 306.892 124.137 311.129 126.579C315.366 129.02 317.531 133.51 317.531 140.227V278.47C317.531 282.989 316.543 287.769 314.506 292.737L314.504 292.74C312.489 297.743 309.826 302.397 306.515 306.703L306.513 306.705C303.233 311.028 299.644 314.266 295.798 316.436L295.794 316.438L260.205 336.919L260.201 336.921C254.502 340.276 249.581 340.64 245.343 338.198C241.168 335.792 239.006 331.396 238.945 324.838L296.294 291.703L296.544 291.56V152.16L295.794 152.594L238.192 185.875L237.943 186.019V349.862L216.68 362.088V173.781L296.268 127.858L296.269 127.859L296.273 127.856Z" fill="url(#paint12_linear_774_21493)" stroke="white"/>
<path d="M362.106 378.601V403.048L340.844 390.822V366.375L362.106 378.601ZM428.668 262.797C424.757 265.065 421.128 268.349 417.757 272.638C414.384 276.928 411.695 281.582 409.636 286.527H409.581L409.454 286.84C407.401 291.908 406.355 296.791 406.355 301.484V352.686C406.355 357.052 405.368 361.758 403.329 366.831V366.833C401.314 371.908 398.602 376.61 395.218 380.914L395.217 380.915C391.832 385.245 388.288 388.487 384.614 390.656L363.106 403.022V378.601L385.118 365.944L385.369 365.801V314.31C385.369 307.963 386.375 301.323 388.394 294.347L388.811 292.947C391.108 285.481 394.329 278.162 398.502 271.041H398.503C402.678 263.891 407.375 257.444 412.646 251.674C417.689 246.152 423.024 241.717 428.668 238.379V262.797ZM383.845 365.498L362.585 377.722L341.346 365.511L362.606 353.287L383.845 365.498ZM392.139 237.161L397.944 240.5V240.499L397.947 240.501L398.014 240.385C400.76 241.946 403.837 242.944 407.244 243.375C412.111 243.99 417.226 243.257 422.603 241.196C418.887 243.963 415.317 247.224 411.907 250.975C406.919 256.436 402.419 262.516 398.43 269.173L397.639 270.512C393.429 277.721 390.175 285.085 387.854 292.628C385.678 299.702 384.519 306.497 384.383 312.99V313.016L384.369 314.285V364.646L363.106 352.421V301.51C363.106 294.742 364.301 287.615 366.672 280.152C369.07 272.682 372.293 265.385 376.367 258.235L376.368 258.236C380.441 251.115 385.163 244.646 390.507 238.877C391.048 238.293 391.593 237.721 392.139 237.161ZM428.15 237.499C428.052 237.557 427.952 237.614 427.854 237.673C420.482 241.634 413.675 243.18 407.37 242.383C401.867 241.687 397.277 239.465 393.581 235.712C397.895 231.483 402.344 228.006 406.911 225.287L428.15 237.499ZM394.038 119.88C396.154 119.862 398.132 120.393 399.98 121.458L399.986 121.446C399.993 121.45 399.999 121.453 400.005 121.457C404.241 123.898 406.405 128.388 406.405 135.104V198.817C400.811 202.039 395.971 202.36 391.795 199.953L391.294 200.818L413.306 213.619L413.308 213.62C417.77 216.192 422.919 215.84 428.693 212.739V236.657L407.155 224.273L406.902 224.129L406.652 224.276C401.923 227.061 397.332 230.635 392.894 234.984C392.392 234.432 391.908 233.851 391.441 233.239C391.272 233.016 391.107 232.789 390.944 232.56C390.209 231.488 389.528 230.335 388.904 229.1C387.934 227.159 387.162 225.036 386.589 222.733C385.795 219.493 385.395 215.887 385.395 211.907V147.041L384.881 147.335L363.622 135.111L385.144 122.737L385.147 122.735C388.351 120.849 391.309 119.908 394.038 119.88ZM384.369 211.907C384.369 216.064 384.813 219.863 385.698 223.29C386.653 227.039 388.132 230.328 390.141 233.155C390.769 234.068 391.439 234.926 392.148 235.727C392.088 235.787 392.026 235.847 391.966 235.908L376.183 226.834C372.163 224.505 368.989 220.995 366.643 216.302V216.301L366.424 215.856C364.204 211.236 363.106 205.666 363.106 199.106V161.009L384.369 148.783V211.907ZM428.147 211.897C422.783 214.76 418.168 215.07 414.206 212.975L413.807 212.754L413.785 212.741C409.749 210.405 407.6 206.202 407.419 199.979L428.147 211.897ZM406.418 199.958C406.535 204.204 407.542 207.643 409.473 210.233L396.062 202.435C399.267 202.831 402.726 201.991 406.418 199.958ZM362.106 135.394V159.841L340.844 147.615V123.168L362.106 135.394ZM383.878 147.912L363.132 159.84V135.982L383.878 147.912ZM362.86 109.935C368.558 106.58 373.479 106.215 377.717 108.657H377.718L395.644 118.964C395.111 118.902 394.572 118.873 394.026 118.879H394.002C391.067 118.911 387.933 119.92 384.615 121.873L362.606 134.527L341.346 122.304L362.855 109.938L362.86 109.935Z" fill="#0056C9" stroke="white"/>
<path d="M428.149 211.897C422.602 214.858 417.858 215.089 413.807 212.755H413.806L396.061 202.436C399.407 202.85 403.029 201.915 406.905 199.684L428.149 211.897Z" fill="url(#paint13_linear_774_21493)" stroke="white"/>
<path d="M362.86 109.935C368.558 106.58 373.479 106.215 377.717 108.657H377.718L395.65 118.968C392.25 118.564 388.562 119.549 384.615 121.873L362.606 134.527L341.346 122.304L362.855 109.938L362.86 109.935Z" fill="url(#paint14_linear_774_21493)" stroke="white"/>
<path d="M428.173 237.511C422.427 240.907 417.012 245.412 411.908 251C406.919 256.462 402.442 262.519 398.435 269.193L397.64 270.535C393.692 277.271 390.586 284.187 388.301 291.24L387.854 292.653C385.533 300.223 384.369 307.426 384.369 314.31V364.646L363.106 352.421V301.509C363.107 294.741 364.301 287.615 366.672 280.152C369.07 272.682 372.293 265.385 376.367 258.235L376.368 258.236C380.441 251.115 385.163 244.645 390.507 238.876C395.773 233.191 401.251 228.657 406.911 225.287L428.173 237.511Z" fill="url(#paint15_linear_774_21493)" stroke="white"/>
<path d="M383.89 365.511L362.606 377.734L341.346 365.511L362.606 353.287L383.89 365.511Z" fill="url(#paint16_linear_774_21493)" stroke="white"/>
<path d="M362.106 378.601V403.048L340.844 390.822V366.375L362.106 378.601Z" fill="url(#paint17_linear_774_21493)" stroke="white"/>
<path d="M384.369 148.194V211.907C384.369 218.791 385.584 224.695 388.011 229.55L388.012 229.552C389.327 232.154 390.889 234.417 392.702 236.332L376.184 226.835H376.183C372.163 224.506 368.989 220.995 366.643 216.303V216.302L366.424 215.857C364.204 211.237 363.106 205.667 363.106 199.107V135.969L384.369 148.194Z" fill="url(#paint18_linear_774_21493)" stroke="white"/>
<path d="M362.106 135.394V159.841L340.844 147.615V123.168L362.106 135.394Z" fill="url(#paint19_linear_774_21493)" stroke="white"/>
<path d="M428.668 262.797C424.757 265.065 421.128 268.35 417.757 272.639C414.384 276.929 411.694 281.583 409.635 286.528H409.581L409.454 286.84C407.401 291.908 406.356 296.791 406.355 301.484V352.687C406.355 357.053 405.369 361.758 403.33 366.831L403.329 366.833C401.314 371.908 398.602 376.61 395.218 380.915V380.916C391.835 385.244 388.292 388.485 384.62 390.654L363.106 403.023V378.576L385.118 365.92L385.369 365.776V314.285C385.369 307.515 386.514 300.387 388.811 292.923C390.964 285.923 393.93 279.075 397.731 272.357L398.503 271.016C402.653 263.891 407.376 257.42 412.646 251.649V251.648C417.565 246.238 422.807 241.868 428.329 238.554C428.442 238.493 428.555 238.433 428.668 238.371V262.797ZM385.147 122.735C390.846 119.38 395.767 119.016 400.005 121.458C404.241 123.899 406.406 128.389 406.406 135.105V199.107C406.406 206.044 408.659 210.941 413.308 213.62C417.77 216.192 422.919 215.842 428.693 212.741V237.182C428.412 237.344 428.131 237.507 427.852 237.675C420.481 241.635 413.674 243.18 407.37 242.383C400.75 241.546 395.451 238.503 391.441 233.239C387.436 227.98 385.395 220.895 385.395 211.907V147.041L384.645 147.472L363.132 159.841V135.394L385.144 122.738L385.147 122.735Z" fill="url(#paint20_linear_774_21493)" stroke="white"/>
</g>
</g>
<defs>
<linearGradient id="paint0_linear_774_21493" x1="429.129" y1="369.371" x2="387" y2="56.2025" gradientUnits="userSpaceOnUse">
<stop stop-color="#2685F8"/>
<stop offset="0.346154" stop-color="#78D7FF"/>
</linearGradient>
<linearGradient id="paint1_linear_774_21493" x1="143.938" y1="373.954" x2="164.487" y2="338.52" gradientUnits="userSpaceOnUse">
<stop stop-color="#2D8CFF"/>
<stop offset="1" stop-color="#78D7FF"/>
</linearGradient>
<linearGradient id="paint2_linear_774_21493" x1="105.196" y1="292.587" x2="114.186" y2="277.084" gradientUnits="userSpaceOnUse">
<stop stop-color="#2D8CFF"/>
<stop offset="1" stop-color="#78D7FF"/>
</linearGradient>
<linearGradient id="paint3_linear_774_21493" x1="81.3038" y1="253.136" x2="173.773" y2="93.683" gradientUnits="userSpaceOnUse">
<stop stop-color="#78D7FF"/>
<stop offset="0.29021" stop-color="#2D8CFF"/>
<stop offset="0.58" stop-color="#2D8CFF"/>
<stop offset="0.814685" stop-color="#C5FFFF"/>
<stop offset="1" stop-color="#C5FFFF"/>
</linearGradient>
<linearGradient id="paint4_linear_774_21493" x1="103.357" y1="376.02" x2="132.896" y2="325.084" gradientUnits="userSpaceOnUse">
<stop stop-color="#3392FF"/>
<stop offset="1" stop-color="#2D8CFF"/>
</linearGradient>
<linearGradient id="paint5_linear_774_21493" x1="95.1955" y1="284.217" x2="106.754" y2="264.285" gradientUnits="userSpaceOnUse">
<stop stop-color="#2D8CFF"/>
<stop offset="1" stop-color="#2D8CFF"/>
</linearGradient>
<linearGradient id="paint6_linear_774_21493" x1="184.234" y1="317.689" x2="107.687" y2="184.517" gradientUnits="userSpaceOnUse">
<stop stop-color="#2685F8"/>
<stop offset="1" stop-color="#78D7FF"/>
</linearGradient>
<linearGradient id="paint7_linear_774_21493" x1="254.507" y1="267.558" x2="323.859" y2="147.968" gradientUnits="userSpaceOnUse">
<stop stop-color="#2D8CFF"/>
<stop offset="1" stop-color="#3392FF"/>
</linearGradient>
<linearGradient id="paint8_linear_774_21493" x1="241.556" y1="326.572" x2="274.947" y2="268.992" gradientUnits="userSpaceOnUse">
<stop stop-color="#2D8CFF"/>
<stop offset="1" stop-color="#78D7FF"/>
</linearGradient>
<linearGradient id="paint9_linear_774_21493" x1="228.244" y1="328.709" x2="231.706" y2="322.738" gradientUnits="userSpaceOnUse">
<stop stop-color="#2D8CFF"/>
<stop offset="1" stop-color="#3392FF"/>
</linearGradient>
<linearGradient id="paint10_linear_774_21493" x1="230.593" y1="182.006" x2="276.827" y2="102.28" gradientUnits="userSpaceOnUse">
<stop stop-color="#C5FFFF"/>
<stop offset="1" stop-color="#C5FFFF"/>
</linearGradient>
<linearGradient id="paint11_linear_774_21493" x1="164.725" y1="333.145" x2="259.763" y2="169.263" gradientUnits="userSpaceOnUse">
<stop stop-color="#3392FF"/>
<stop offset="1" stop-color="#2D8CFF"/>
</linearGradient>
<linearGradient id="paint12_linear_774_21493" x1="301.3" y1="307.687" x2="224.753" y2="174.514" gradientUnits="userSpaceOnUse">
<stop offset="0.13986" stop-color="#2685F8"/>
<stop offset="0.872378" stop-color="#78D7FF"/>
</linearGradient>
<linearGradient id="paint13_linear_774_21493" x1="407.974" y1="210.143" x2="413.111" y2="201.285" gradientUnits="userSpaceOnUse">
<stop stop-color="#1C7BEE"/>
<stop offset="1" stop-color="#1C7BEE"/>
</linearGradient>
<linearGradient id="paint14_linear_774_21493" x1="362.524" y1="135.173" x2="375.367" y2="113.027" gradientUnits="userSpaceOnUse">
<stop stop-color="#C5FFFF"/>
<stop offset="1" stop-color="#C5FFFF"/>
</linearGradient>
<linearGradient id="paint15_linear_774_21493" x1="358.402" y1="350.394" x2="435.46" y2="217.516" gradientUnits="userSpaceOnUse">
<stop stop-color="#2D8CFF"/>
<stop offset="0.33" stop-color="#2D8CFF"/>
<stop offset="0.51" stop-color="#2D8CFF"/>
<stop offset="1" stop-color="#3392FF"/>
</linearGradient>
<linearGradient id="paint16_linear_774_21493" x1="357.193" y1="375.292" x2="376.458" y2="342.073" gradientUnits="userSpaceOnUse">
<stop stop-color="#78D7FF"/>
<stop offset="1" stop-color="#2D8CFF"/>
</linearGradient>
<linearGradient id="paint17_linear_774_21493" x1="345.908" y1="394.339" x2="358.751" y2="372.192" gradientUnits="userSpaceOnUse">
<stop stop-color="#3392FF"/>
<stop offset="1" stop-color="#2D8CFF"/>
</linearGradient>
<linearGradient id="paint18_linear_774_21493" x1="362.109" y1="219.392" x2="404.49" y2="146.309" gradientUnits="userSpaceOnUse">
<stop stop-color="#3392FF"/>
<stop offset="0.335664" stop-color="#2D8CFF"/>
<stop offset="1" stop-color="#3392FF"/>
</linearGradient>
<linearGradient id="paint19_linear_774_21493" x1="345.902" y1="151.121" x2="358.745" y2="128.974" gradientUnits="userSpaceOnUse">
<stop stop-color="#2D8CFF"/>
<stop offset="1" stop-color="#2D8CFF"/>
</linearGradient>
<linearGradient id="paint20_linear_774_21493" x1="418.416" y1="324.631" x2="341.869" y2="191.459" gradientUnits="userSpaceOnUse">
<stop stop-color="#2685F8"/>
<stop offset="0.346154" stop-color="#78D7FF"/>
</linearGradient>
<clipPath id="clip0_774_21493">
<rect width="346.112" height="346.112" fill="white" transform="translate(83.0562 83)"/>
</clipPath>
<clipPath id="clip1_774_21493">
<rect width="346.112" height="346.112" fill="white" transform="translate(83.0562 83)"/>
</clipPath>
</defs>
</svg>
