<svg width="960" height="960" viewBox="0 0 960 960" fill="none" xmlns="http://www.w3.org/2000/svg">
<rect x="15" y="15" width="930" height="930" rx="225" fill="white"/>
<rect x="15" y="15" width="930" height="930" rx="225" stroke="url(#paint0_linear_774_21493)" stroke-width="30"/>
<g clip-path="url(#clip0_774_21493)">
<g clip-path="url(#clip1_774_21493)">
<path d="M321.207 730.647L280.188 754.502C269.082 760.848 259.538 761.584 251.414 756.902C243.398 752.283 239.305 743.852 239.198 731.436H239.24V683.825L280.187 707.368L280.936 707.799V707.222L321.207 683.803V730.647ZM197.874 596.874C208.037 590.933 216.976 589.992 224.773 593.895L225.924 594.563L225.926 594.564C234.049 599.246 238.146 607.842 238.146 620.532V682.671L237.69 682.934L238.146 683.195V730.936C238.147 740.68 240.531 748.199 245.371 753.416L210.097 732.903L210.095 732.902L209.717 732.68C201.844 727.951 197.874 719.426 197.874 706.935V596.874ZM279.936 706.069L239.696 682.934L279.936 659.797V706.069ZM320.713 682.934L280.936 706.064V659.802L320.713 682.934ZM228.834 538.724C234.986 538.436 240.686 539.017 245.928 540.46C254.763 543.224 262.21 548.499 268.276 556.273C276.047 566.231 279.936 579.664 279.936 596.531V658.644L239.24 682.041V620.532C239.24 607.622 235.054 598.617 226.519 593.698C226.099 593.456 225.676 593.229 225.25 593.015L197.969 577.149V548.765C199.828 547.687 201.668 546.692 203.489 545.781C212.219 541.452 220.675 539.105 228.834 538.724ZM219.997 591.116C213.306 589.59 205.951 591.132 197.969 595.667V578.306L219.997 591.116ZM196.874 548.819V576.513L185.21 569.73C185.191 569.719 185.172 569.708 185.153 569.697L184.652 570.562H184.653V570.563C192.59 575.137 196.681 583.447 196.865 595.661L156.132 572.24V525.394L196.874 548.819ZM196.874 577.669V586.557C195.752 581.495 193.682 577.319 190.647 574.049L196.874 577.669ZM187.094 514.723C190.492 514.548 193.752 514.648 196.874 515.019V547.665L156.631 524.526C167.182 518.437 177.349 515.178 187.092 514.723H187.094ZM197.969 515.16C203.315 515.91 208.245 517.465 212.752 519.792L213.467 520.169L224.3 526.397C215.85 535.049 207.072 542.122 197.969 547.593V515.16ZM248.024 540.039C247.427 539.848 246.824 539.67 246.215 539.502C243.67 538.707 241.013 538.115 238.244 537.729C228.243 536.332 217.554 538.233 206.183 543.389C212.7 538.731 219.038 533.236 225.195 526.912L248.024 540.039ZM321.207 274.635L280.185 298.49L279.936 298.635V404.525C279.936 417.266 277.687 430.674 273.229 444.703C268.723 458.738 262.621 472.447 254.78 485.875C246.937 499.26 238.11 511.42 228.206 522.263C227.149 523.42 226.085 524.551 225.018 525.657L213.953 519.296L213.941 519.289C209.091 516.67 203.762 514.947 197.969 514.15V500.815C200.042 499.618 202.069 498.265 204.051 496.756C207.037 494.492 209.923 491.869 212.701 488.887C214.593 486.866 216.44 484.683 218.242 482.339L218.243 482.337C224.482 474.16 229.587 465.226 233.416 455.582C237.245 445.938 239.193 436.933 239.193 428.526V322.924C239.193 314.386 241.059 305.414 244.897 296.006V296.005C248.692 286.637 253.798 277.829 260.169 269.725L260.17 269.724C266.539 261.575 273.361 255.46 280.68 251.357L280.687 251.354L321.207 227.789V274.635ZM196.874 500.817V514.013C193.73 513.647 190.451 513.548 187.042 513.724C177.107 514.188 166.788 517.51 156.132 523.66V477.392L196.874 500.817ZM320.666 226.92L280.142 250.486C272.685 254.713 265.767 260.926 259.336 269.107C252.906 277.286 247.801 286.174 243.925 295.627L243.924 295.629C240.092 305.09 238.146 314.19 238.146 322.924V428.526C238.146 436.779 236.235 445.657 232.44 455.213C228.645 464.771 223.633 473.625 217.402 481.729L217.4 481.731C215.66 484.026 213.872 486.159 212.039 488.132C209.294 491.073 206.456 493.66 203.525 495.899C201.533 497.415 199.498 498.765 197.422 499.951L156.679 476.526C163.844 472.312 170.421 466.244 176.499 458.338L176.501 458.337C182.739 450.161 187.89 441.229 191.906 431.59C195.925 421.944 197.969 412.936 197.969 404.525V298.923C197.969 290.385 199.835 281.413 203.673 272.005V272.004C207.467 262.635 212.527 253.873 218.714 245.718C224.893 237.572 231.621 231.458 238.938 227.356L238.942 227.354L280.434 203.497L320.666 226.92Z" fill="#0056C9" stroke="white"/>
<path d="M320.712 682.934L280.433 706.357L239.696 682.935L280.433 659.511L320.712 682.934Z" fill="url(#paint1_linear_774_21493)" stroke="white"/>
<path d="M187.094 514.724C196.773 514.226 205.335 515.963 212.752 519.793L213.467 520.171L248.021 540.038C242.17 538.169 235.752 537.4 228.787 537.726C218.695 538.197 208.207 541.616 197.372 547.953L156.63 524.528C167.181 518.439 177.349 515.179 187.092 514.724H187.094Z" fill="url(#paint2_linear_774_21493)" stroke="white"/>
<path d="M320.665 226.92L280.142 250.486C272.685 254.713 265.767 260.926 259.336 269.107C252.906 277.286 247.801 286.174 243.925 295.627L243.924 295.629C240.092 305.09 238.146 314.19 238.146 322.924V428.526C238.146 436.779 236.234 445.657 232.439 455.213C228.644 464.771 223.632 473.625 217.401 481.729L217.399 481.731C211.291 489.784 204.599 495.851 197.421 499.951L156.679 476.526C163.844 472.312 170.421 466.244 176.499 458.338L176.5 458.337C182.738 450.161 187.89 441.229 191.906 431.59C195.925 421.944 197.968 412.936 197.968 404.525V298.923C197.968 290.385 199.835 281.413 203.673 272.005V272.004C207.467 262.635 212.527 253.873 218.714 245.718C224.893 237.572 231.621 231.458 238.938 227.356L238.942 227.354L280.434 203.497L320.665 226.92Z" fill="url(#paint3_linear_774_21493)" stroke="white"/>
<path d="M225.924 594.563L225.926 594.564C234.049 599.246 238.146 607.842 238.146 620.532V730.936C238.146 740.681 240.531 748.2 245.371 753.417L210.097 732.903L210.095 732.902C201.971 728.221 197.874 719.625 197.874 706.935V596.531C197.874 586.786 195.489 579.267 190.648 574.05L225.924 594.563Z" fill="url(#paint4_linear_774_21493)" stroke="white"/>
<path d="M196.874 500.819V595.668L156.132 572.242V477.394L196.874 500.819Z" fill="url(#paint5_linear_774_21493)" stroke="white"/>
<path d="M197.968 548.766C212.503 540.336 225.876 537.012 238.106 538.72C250.446 540.443 260.496 546.304 268.276 556.274C276.047 566.232 279.935 579.665 279.936 596.532V707.805L280.687 707.368L321.207 683.804V730.648L280.184 754.505C269.079 760.849 259.536 761.585 251.413 756.904C243.397 752.285 239.305 743.853 239.198 731.437H239.24V620.533C239.24 607.623 235.054 598.618 226.519 593.699C218.18 588.894 208.634 589.608 197.968 595.668V548.766ZM321.207 274.636L280.184 298.492L279.936 298.637V404.527C279.936 417.268 277.687 430.676 273.229 444.705C268.864 458.302 263 471.592 255.509 484.617L254.779 485.877C246.936 499.262 238.11 511.421 228.206 522.264C218.563 532.821 208.483 541.276 197.968 547.595V500.817C205.281 496.593 212.022 490.429 218.241 482.34L218.243 482.339C224.482 474.162 229.587 465.228 233.416 455.584C237.245 445.94 239.192 436.934 239.192 428.527V322.925C239.192 314.387 241.059 305.415 244.897 296.007V296.006C248.692 286.638 253.798 277.831 260.169 269.727L260.17 269.726C266.539 261.577 273.361 255.461 280.68 251.358L280.687 251.354L321.207 227.791V274.636Z" fill="url(#paint6_linear_774_21493)" stroke="white"/>
<path d="M404.213 325.312L403.325 325.824H404.739V679.67L363.997 656.244V302.188L404.213 325.312ZM405.739 594.506C407.405 602.023 411.16 607.586 417.063 611.133L417.46 611.366L446.481 628.052V656.244L405.739 679.67V594.506ZM572.517 233.938C576.406 233.97 580.061 234.98 583.489 236.955C591.612 241.636 595.709 250.233 595.709 262.923V522.13C595.709 530.668 593.843 539.687 590.005 549.047L590.004 549.05C586.21 558.466 581.197 567.227 574.965 575.333L574.963 575.336C568.785 583.481 562.01 589.596 554.739 593.697L554.735 593.699L488.003 632.101L488 632.103C477.228 638.444 467.826 639.182 459.702 634.5C451.64 629.854 447.545 621.352 447.484 608.819L555.235 546.563L555.485 546.42V287.212L555.986 286.923L555.234 286.49L514.317 262.964L555.235 239.355L555.238 239.353C561.447 235.697 567.201 233.904 572.517 233.938ZM447.481 618.507C448.612 623.612 450.708 627.816 453.786 631.099L447.481 627.473V618.507ZM446.481 608.821V626.897L417.958 610.499C410.023 605.925 405.932 597.615 405.748 585.401L446.481 608.821ZM446.481 607.668L406.239 584.53L446.481 561.28V607.668ZM553.983 546.132L447.481 607.666V560.702L513.243 522.707L553.983 546.132ZM512.742 310.752L446.731 348.893L446.481 349.037V560.126L405.739 583.666V325.613L512.742 263.873V310.752ZM554.485 545.267L513.742 521.841V311.33L554.485 287.789V545.267ZM513.496 215.353C524.262 209.014 533.81 208.268 542.271 212.958L577.67 233.544C576.009 233.152 574.307 232.95 572.565 232.937H572.518C567.276 232.896 561.668 234.562 555.708 237.902L554.684 238.491L513.292 262.374L512.742 262.059V262.691L405.214 324.734L364.498 301.323L513.492 215.354L513.496 215.353ZM553.982 286.924L513.742 310.175V263.787L553.982 286.924Z" fill="#0056C9" stroke="white"/>
<path d="M554.484 287.212V545.266L513.742 521.84V263.786L554.484 287.212Z" fill="url(#paint7_linear_774_21493)" stroke="white"/>
<path d="M553.982 546.132L446.98 607.956L406.239 584.531L513.242 522.707L553.982 546.132Z" fill="url(#paint8_linear_774_21493)" stroke="white"/>
<path d="M446.484 608.823C446.531 618.48 448.941 625.929 453.786 631.098L417.959 610.499C410.023 605.925 405.931 597.615 405.747 585.4L446.484 608.823Z" fill="url(#paint9_linear_774_21493)" stroke="white"/>
<path d="M513.496 215.353C524.262 209.014 533.81 208.268 542.271 212.958L577.671 233.545C571.014 231.975 563.696 233.451 555.755 237.902L554.731 238.491L405.238 324.747L364.498 301.323L513.492 215.354L513.496 215.353Z" fill="url(#paint10_linear_774_21493)" stroke="white"/>
<path d="M404.739 325.614V679.671L363.997 656.245V302.188L404.739 325.614Z" fill="url(#paint11_linear_774_21493)" stroke="white"/>
<path d="M555.191 239.353C565.962 233.011 575.364 232.272 583.489 236.954C591.612 241.635 595.709 250.232 595.709 262.922V522.13C595.709 530.668 593.843 539.687 590.005 549.047L590.004 549.05C586.21 558.466 581.197 567.227 574.965 575.332L574.963 575.335C568.785 583.48 562.01 589.595 554.739 593.696L554.735 593.698L488.003 632.1L488 632.102C477.228 638.443 467.826 639.182 459.702 634.5C451.64 629.854 447.545 621.352 447.484 608.818L555.235 546.563L555.485 546.419V286.057L554.734 286.49L446.731 348.892L446.481 349.036V656.243L405.739 679.669V325.585L555.187 239.354L555.191 239.353Z" fill="url(#paint12_linear_774_21493)" stroke="white"/>
<path d="M679.288 709.623V756.471L638.546 733.045V686.197L679.288 709.623ZM804.092 492.992C796.732 497.216 789.897 503.379 783.539 511.467C777.18 519.556 772.117 528.339 768.257 537.677H768.16L768.033 537.989C764.202 547.45 762.255 556.549 762.255 565.283V661.286C762.255 669.54 760.39 678.417 756.55 687.971V687.973C752.756 697.528 747.65 706.38 741.279 714.484L741.278 714.485C734.908 722.635 728.225 728.752 721.281 732.854L680.288 756.424V709.623L721.78 685.768L722.03 685.623V589.331C722.03 576.986 724.053 564.06 728.104 550.465L728.503 549.147C732.821 535.115 738.876 521.361 746.716 507.981V507.98C754.558 494.55 763.385 482.437 773.289 471.594C782.868 461.106 793.012 452.693 803.759 446.388C803.87 446.327 803.981 446.264 804.092 446.202V492.992ZM720.486 685.31L679.746 708.733L639.049 685.334L679.788 661.909L720.486 685.31ZM746.271 450.561L746.396 450.344C751.495 453.242 757.21 455.094 763.54 455.894C773.587 457.163 784.225 455.349 795.493 450.462C787.826 455.823 780.477 462.294 773.481 469.857L772.551 470.873C762.907 481.431 754.24 493.227 746.59 506.174L745.853 507.43C737.975 520.92 731.888 534.697 727.547 548.807C723.205 562.918 721.03 576.427 721.03 589.284V684.469L680.288 661.043V565.33C680.288 552.589 682.537 539.182 686.994 525.152C691.501 511.116 697.557 497.405 705.211 483.975C712.864 470.594 721.737 458.437 731.78 447.596C732.876 446.413 733.977 445.257 735.082 444.127L746.271 450.561ZM803.55 445.305C803.14 445.543 802.731 445.784 802.323 446.028C788.45 453.482 775.597 456.409 763.665 454.901C753.097 453.566 744.296 449.253 737.246 441.955C745.523 433.799 754.068 427.109 762.854 421.905L803.55 445.305ZM736.456 442.738C737.27 443.602 738.111 444.427 738.979 445.215L735.808 443.391C736.024 443.172 736.24 442.955 736.456 442.738ZM739.11 224.336C742.855 224.367 746.383 225.305 749.7 227.139L750.082 227.354L750.093 227.333C750.105 227.34 750.117 227.347 750.129 227.354C758.252 232.035 762.35 240.631 762.35 253.321V373.034C751.68 379.244 742.361 379.939 734.298 375.292L733.797 376.157L775.027 400.134C775.042 400.142 775.056 400.151 775.07 400.159C783.429 404.976 793.133 404.244 804.139 398.15V444.489L763.099 420.893L762.847 420.748L762.596 420.896C753.648 426.163 744.961 432.951 736.56 441.228C735.501 440.084 734.482 438.871 733.505 437.588C733.215 437.207 732.932 436.82 732.653 436.43C731.393 434.606 730.218 432.659 729.131 430.585L728.706 429.76C726.856 426.059 725.389 422.013 724.305 417.626C722.823 411.537 722.078 404.773 722.078 397.325V276.458L721.554 276.758L680.814 253.335L721.827 229.754L721.831 229.751C728.04 226.095 733.794 224.303 739.11 224.336ZM721.03 397.325C721.03 405.089 721.859 412.175 723.508 418.559C725.303 425.614 728.094 431.786 731.883 437.073C733.101 438.829 734.398 440.472 735.777 442.002C735.488 442.291 735.199 442.582 734.91 442.875L705.026 425.692C697.405 421.277 691.398 414.626 686.965 405.761V405.76L686.552 404.92C682.355 396.182 680.288 385.671 680.288 373.325V301.639L721.03 278.214V397.325ZM803.577 397.318C792.797 403.266 783.507 403.866 775.57 399.292C767.634 394.718 763.541 386.408 763.357 374.193L803.577 397.318ZM762.357 374.184C762.494 383.513 764.878 390.744 769.576 395.807L740.162 378.702C746.898 380.29 754.308 378.758 762.357 374.184ZM679.288 253.61V300.458L638.546 277.032V230.185L679.288 253.61ZM720.55 277.335L680.335 300.458V254.212L720.55 277.335ZM680.042 205.751C690.813 199.409 700.215 198.67 708.34 203.353V203.354L744.073 223.898C742.473 223.536 740.834 223.348 739.158 223.335H739.111C733.571 223.292 727.622 225.155 721.281 228.887L679.788 252.744L639.049 229.32L680.037 205.753L680.042 205.751Z" fill="#0056C9" stroke="white"/>
<path d="M803.577 397.318C792.97 403.171 783.805 403.845 775.952 399.507L775.57 399.292L740.163 378.701C747.036 380.321 754.609 378.694 762.848 373.9L803.577 397.318Z" fill="url(#paint13_linear_774_21493)" stroke="white"/>
<path d="M680.042 205.751C690.813 199.409 700.215 198.67 708.34 203.353V203.354L744.105 223.917C737.193 222.325 729.572 224.007 721.281 228.887L679.788 252.744L639.049 229.32L680.037 205.753L680.042 205.751Z" fill="url(#paint14_linear_774_21493)" stroke="white"/>
<path d="M803.591 445.328C792.62 451.713 782.288 460.26 772.551 470.92C762.596 481.818 753.728 493.989 745.853 507.476C738.221 520.5 732.27 533.881 727.959 547.531L727.547 548.854C723.205 563.012 721.03 576.474 721.03 589.331V684.469L680.288 661.043V565.33C680.288 552.589 682.537 539.182 686.994 525.152C691.501 511.116 697.557 497.405 705.211 483.975C712.864 470.594 721.737 458.437 731.78 447.596C741.746 436.838 752.119 428.262 762.853 421.905L803.591 445.328Z" fill="url(#paint15_linear_774_21493)" stroke="white"/>
<path d="M720.573 685.334L679.787 708.758L639.049 685.335L679.788 661.91L720.573 685.334Z" fill="url(#paint16_linear_774_21493)" stroke="white"/>
<path d="M679.288 709.624V756.472L638.546 733.046V686.198L679.288 709.624Z" fill="url(#paint17_linear_774_21493)" stroke="white"/>
<path d="M721.03 277.61V397.324C721.03 410.182 723.299 421.181 727.812 430.208L727.813 430.21C730.835 436.19 734.553 441.198 738.979 445.214L705.025 425.691C697.404 421.276 691.397 414.625 686.965 405.76V405.759L686.552 404.919C682.355 396.181 680.288 385.67 680.288 373.324V254.185L721.03 277.61Z" fill="url(#paint18_linear_774_21493)" stroke="white"/>
<path d="M679.288 253.61V300.458L638.546 277.032V230.185L679.288 253.61Z" fill="url(#paint19_linear_774_21493)" stroke="white"/>
<path d="M804.092 492.991C796.732 497.215 789.897 503.378 783.539 511.466C777.18 519.555 772.117 528.338 768.257 537.676H768.159L768.033 537.988C764.202 547.449 762.255 556.548 762.255 565.282V661.285C762.255 669.539 760.39 678.417 756.55 687.97L756.549 687.972C752.755 697.527 747.65 706.38 741.279 714.483L741.278 714.484C734.908 722.634 728.225 728.751 721.281 732.854L680.288 756.423V709.575L721.779 685.72L722.03 685.575V589.283C722.03 576.539 724.186 563.13 728.503 549.1C732.686 535.506 738.499 522.218 745.986 509.192L746.716 507.933C754.511 494.549 763.385 482.39 773.289 471.547L773.29 471.546C782.542 461.369 792.408 453.143 802.81 446.902C803.236 446.673 803.664 446.44 804.092 446.202V492.991ZM721.831 229.751C732.602 223.409 742.004 222.67 750.129 227.353C758.252 232.034 762.35 240.63 762.35 253.32V373.324C762.35 386.235 766.535 395.239 775.07 400.158C783.429 404.975 793.133 404.243 804.139 398.149V444.963C803.529 445.313 802.921 445.67 802.314 446.033C788.445 453.483 775.594 456.409 763.665 454.901C751.138 453.318 741.094 447.551 733.505 437.588C725.92 427.629 722.077 414.241 722.077 397.325V276.457L721.328 276.888L680.335 300.457V253.609L721.827 229.753L721.831 229.751Z" fill="url(#paint20_linear_774_21493)" stroke="white"/>
</g>
</g>
<defs>
<linearGradient id="paint0_linear_774_21493" x1="804.616" y1="692.57" x2="725.624" y2="105.38" gradientUnits="userSpaceOnUse">
<stop stop-color="#2685F8"/>
<stop offset="0.346154" stop-color="#78D7FF"/>
</linearGradient>
<linearGradient id="paint1_linear_774_21493" x1="269.786" y1="701.163" x2="308.314" y2="634.724" gradientUnits="userSpaceOnUse">
<stop stop-color="#2D8CFF"/>
<stop offset="1" stop-color="#78D7FF"/>
</linearGradient>
<linearGradient id="paint2_linear_774_21493" x1="197.144" y1="548.602" x2="214" y2="519.535" gradientUnits="userSpaceOnUse">
<stop stop-color="#2D8CFF"/>
<stop offset="1" stop-color="#78D7FF"/>
</linearGradient>
<linearGradient id="paint3_linear_774_21493" x1="152.346" y1="474.629" x2="325.726" y2="175.654" gradientUnits="userSpaceOnUse">
<stop stop-color="#78D7FF"/>
<stop offset="0.29021" stop-color="#2D8CFF"/>
<stop offset="0.58" stop-color="#2D8CFF"/>
<stop offset="0.814685" stop-color="#C5FFFF"/>
<stop offset="1" stop-color="#C5FFFF"/>
</linearGradient>
<linearGradient id="paint4_linear_774_21493" x1="193.697" y1="705.037" x2="249.082" y2="609.531" gradientUnits="userSpaceOnUse">
<stop stop-color="#3392FF"/>
<stop offset="1" stop-color="#2D8CFF"/>
</linearGradient>
<linearGradient id="paint5_linear_774_21493" x1="178.393" y1="532.908" x2="200.066" y2="495.536" gradientUnits="userSpaceOnUse">
<stop stop-color="#2D8CFF"/>
<stop offset="1" stop-color="#2D8CFF"/>
</linearGradient>
<linearGradient id="paint6_linear_774_21493" x1="345.34" y1="595.666" x2="201.815" y2="345.968" gradientUnits="userSpaceOnUse">
<stop stop-color="#2685F8"/>
<stop offset="1" stop-color="#78D7FF"/>
</linearGradient>
<linearGradient id="paint7_linear_774_21493" x1="477.102" y1="501.669" x2="607.137" y2="277.438" gradientUnits="userSpaceOnUse">
<stop stop-color="#2D8CFF"/>
<stop offset="1" stop-color="#3392FF"/>
</linearGradient>
<linearGradient id="paint8_linear_774_21493" x1="452.818" y1="612.321" x2="515.427" y2="504.358" gradientUnits="userSpaceOnUse">
<stop stop-color="#2D8CFF"/>
<stop offset="1" stop-color="#78D7FF"/>
</linearGradient>
<linearGradient id="paint9_linear_774_21493" x1="427.858" y1="616.329" x2="434.35" y2="605.134" gradientUnits="userSpaceOnUse">
<stop stop-color="#2D8CFF"/>
<stop offset="1" stop-color="#3392FF"/>
</linearGradient>
<linearGradient id="paint10_linear_774_21493" x1="432.262" y1="341.261" x2="518.952" y2="191.774" gradientUnits="userSpaceOnUse">
<stop stop-color="#C5FFFF"/>
<stop offset="1" stop-color="#C5FFFF"/>
</linearGradient>
<linearGradient id="paint11_linear_774_21493" x1="308.761" y1="624.645" x2="486.956" y2="317.366" gradientUnits="userSpaceOnUse">
<stop stop-color="#3392FF"/>
<stop offset="1" stop-color="#2D8CFF"/>
</linearGradient>
<linearGradient id="paint12_linear_774_21493" x1="564.839" y1="576.91" x2="421.314" y2="327.212" gradientUnits="userSpaceOnUse">
<stop offset="0.13986" stop-color="#2685F8"/>
<stop offset="0.872378" stop-color="#78D7FF"/>
</linearGradient>
<linearGradient id="paint13_linear_774_21493" x1="764.852" y1="394.016" x2="774.484" y2="377.407" gradientUnits="userSpaceOnUse">
<stop stop-color="#1C7BEE"/>
<stop offset="1" stop-color="#1C7BEE"/>
</linearGradient>
<linearGradient id="paint14_linear_774_21493" x1="679.633" y1="253.449" x2="703.714" y2="211.925" gradientUnits="userSpaceOnUse">
<stop stop-color="#C5FFFF"/>
<stop offset="1" stop-color="#C5FFFF"/>
</linearGradient>
<linearGradient id="paint15_linear_774_21493" x1="671.905" y1="656.988" x2="816.388" y2="407.843" gradientUnits="userSpaceOnUse">
<stop stop-color="#2D8CFF"/>
<stop offset="0.33" stop-color="#2D8CFF"/>
<stop offset="0.51" stop-color="#2D8CFF"/>
<stop offset="1" stop-color="#3392FF"/>
</linearGradient>
<linearGradient id="paint16_linear_774_21493" x1="669.639" y1="703.674" x2="705.76" y2="641.388" gradientUnits="userSpaceOnUse">
<stop stop-color="#78D7FF"/>
<stop offset="1" stop-color="#2D8CFF"/>
</linearGradient>
<linearGradient id="paint17_linear_774_21493" x1="648.479" y1="739.384" x2="672.56" y2="697.86" gradientUnits="userSpaceOnUse">
<stop stop-color="#3392FF"/>
<stop offset="1" stop-color="#2D8CFF"/>
</linearGradient>
<linearGradient id="paint18_linear_774_21493" x1="678.855" y1="411.358" x2="758.321" y2="274.328" gradientUnits="userSpaceOnUse">
<stop stop-color="#3392FF"/>
<stop offset="0.335664" stop-color="#2D8CFF"/>
<stop offset="1" stop-color="#3392FF"/>
</linearGradient>
<linearGradient id="paint19_linear_774_21493" x1="648.467" y1="283.35" x2="672.548" y2="241.826" gradientUnits="userSpaceOnUse">
<stop stop-color="#2D8CFF"/>
<stop offset="1" stop-color="#2D8CFF"/>
</linearGradient>
<linearGradient id="paint20_linear_774_21493" x1="784.431" y1="608.682" x2="640.906" y2="358.984" gradientUnits="userSpaceOnUse">
<stop stop-color="#2685F8"/>
<stop offset="0.346154" stop-color="#78D7FF"/>
</linearGradient>
<clipPath id="clip0_774_21493">
<rect width="648.96" height="648.96" fill="white" transform="translate(155.632 155.625)"/>
</clipPath>
<clipPath id="clip1_774_21493">
<rect width="648.96" height="648.96" fill="white" transform="translate(155.632 155.625)"/>
</clipPath>
</defs>
</svg>
