<svg width="864" height="864" viewBox="0 0 864 864" fill="none" xmlns="http://www.w3.org/2000/svg">
<rect width="864" height="1" fill="white" fill-opacity="0.101961"/>
<rect y="124" width="864" height="1" fill="white" fill-opacity="0.101961"/>
<rect y="247" width="864" height="1" fill="white" fill-opacity="0.101961"/>
<rect y="370" width="864" height="1" fill="white" fill-opacity="0.101961"/>
<rect y="493" width="864" height="1" fill="white" fill-opacity="0.101961"/>
<rect y="616" width="864" height="1" fill="white" fill-opacity="0.101961"/>
<rect y="739" width="864" height="1" fill="white" fill-opacity="0.101961"/>
<rect y="863" width="864" height="1" fill="white" fill-opacity="0.101961"/>
<rect width="1" height="864" fill="url(#paint0_linear_777_21550)"/>
<rect y="738" width="3" height="3" fill="#222222"/>
<rect y="861" width="3" height="3" fill="#222222"/>
<rect y="615" width="3" height="3" fill="#1B1B1B"/>
<rect y="492" width="3" height="3" fill="#1E1E1E"/>
<rect y="369" width="3" height="3" fill="#1B1B1B"/>
<rect y="246" width="3" height="3" fill="#222222"/>
<rect y="123" width="3" height="3" fill="#222222"/>
<rect width="3" height="3" fill="#444444"/>
<rect x="124" width="1" height="864" fill="url(#paint1_linear_777_21550)"/>
<rect x="123" y="738" width="3" height="3" fill="#222222"/>
<rect x="123" y="861" width="3" height="3" fill="#222222"/>
<rect x="123" y="615" width="3" height="3" fill="#1B1B1B"/>
<rect x="123" y="492" width="3" height="3" fill="#1E1E1E"/>
<rect x="123" y="369" width="3" height="3" fill="#1B1B1B"/>
<rect x="123" y="246" width="3" height="3" fill="#222222"/>
<rect x="123" y="123" width="3" height="3" fill="#222222"/>
<rect x="123" width="3" height="3" fill="#444444"/>
<rect x="247" width="1" height="864" fill="url(#paint2_linear_777_21550)"/>
<rect x="246" y="738" width="3" height="3" fill="#222222"/>
<rect x="246" y="861" width="3" height="3" fill="#222222"/>
<rect x="246" y="615" width="3" height="3" fill="#1B1B1B"/>
<rect x="246" y="492" width="3" height="3" fill="#1E1E1E"/>
<rect x="246" y="369" width="3" height="3" fill="#1B1B1B"/>
<rect x="246" y="246" width="3" height="3" fill="#222222"/>
<rect x="246" y="123" width="3" height="3" fill="#222222"/>
<rect x="246" width="3" height="3" fill="#444444"/>
<rect x="370" width="1" height="864" fill="url(#paint3_linear_777_21550)"/>
<rect x="369" y="738" width="3" height="3" fill="#222222"/>
<rect x="369" y="861" width="3" height="3" fill="#222222"/>
<rect x="369" y="615" width="3" height="3" fill="#1B1B1B"/>
<rect x="369" y="492" width="3" height="3" fill="#1E1E1E"/>
<rect x="369" y="369" width="3" height="3" fill="#1B1B1B"/>
<rect x="369" y="246" width="3" height="3" fill="#222222"/>
<rect x="369" y="123" width="3" height="3" fill="#222222"/>
<rect x="369" width="3" height="3" fill="#444444"/>
<rect x="493" width="1" height="864" fill="url(#paint4_linear_777_21550)"/>
<rect x="492" y="738" width="3" height="3" fill="#222222"/>
<rect x="492" y="861" width="3" height="3" fill="#222222"/>
<rect x="492" y="615" width="3" height="3" fill="#1B1B1B"/>
<rect x="492" y="492" width="3" height="3" fill="#1E1E1E"/>
<rect x="492" y="369" width="3" height="3" fill="#1B1B1B"/>
<rect x="492" y="246" width="3" height="3" fill="#222222"/>
<rect x="492" y="123" width="3" height="3" fill="#222222"/>
<rect x="492" width="3" height="3" fill="#444444"/>
<rect x="616" width="1" height="864" fill="url(#paint5_linear_777_21550)"/>
<rect x="615" y="738" width="3" height="3" fill="#222222"/>
<rect x="615" y="861" width="3" height="3" fill="#222222"/>
<rect x="615" y="615" width="3" height="3" fill="#1B1B1B"/>
<rect x="615" y="492" width="3" height="3" fill="#1E1E1E"/>
<rect x="615" y="369" width="3" height="3" fill="#1B1B1B"/>
<rect x="615" y="246" width="3" height="3" fill="#222222"/>
<rect x="615" y="123" width="3" height="3" fill="#222222"/>
<rect x="615" width="3" height="3" fill="#444444"/>
<rect x="739" width="1" height="864" fill="url(#paint6_linear_777_21550)"/>
<rect x="738" y="738" width="3" height="3" fill="#222222"/>
<rect x="738" y="861" width="3" height="3" fill="#222222"/>
<rect x="738" y="615" width="3" height="3" fill="#1B1B1B"/>
<rect x="738" y="492" width="3" height="3" fill="#1E1E1E"/>
<rect x="738" y="369" width="3" height="3" fill="#1B1B1B"/>
<rect x="738" y="246" width="3" height="3" fill="#222222"/>
<rect x="738" y="123" width="3" height="3" fill="#222222"/>
<rect x="738" width="3" height="3" fill="#444444"/>
<rect x="863" width="1" height="864" fill="url(#paint7_linear_777_21550)"/>
<rect x="861" y="738" width="3" height="3" fill="#222222"/>
<rect x="861" y="861" width="3" height="3" fill="#222222"/>
<rect x="861" y="615" width="3" height="3" fill="#1B1B1B"/>
<rect x="861" y="492" width="3" height="3" fill="#1E1E1E"/>
<rect x="861" y="369" width="3" height="3" fill="#1B1B1B"/>
<rect x="861" y="246" width="3" height="3" fill="#222222"/>
<rect x="861" y="123" width="3" height="3" fill="#222222"/>
<rect x="861" width="3" height="3" fill="#444444"/>
<defs>
<linearGradient id="paint0_linear_777_21550" x1="0.5" y1="0" x2="0.5" y2="864" gradientUnits="userSpaceOnUse">
<stop stop-color="#1A1B1C"/>
<stop offset="0.25" stop-color="#09090A" stop-opacity="0.501961"/>
<stop offset="0.5" stop-color="#1A1B1C"/>
<stop offset="0.75" stop-color="#09090A" stop-opacity="0.501961"/>
<stop offset="1" stop-color="#1A1B1C"/>
</linearGradient>
<linearGradient id="paint1_linear_777_21550" x1="124.5" y1="0" x2="124.5" y2="864" gradientUnits="userSpaceOnUse">
<stop stop-color="#1A1B1C"/>
<stop offset="0.25" stop-color="#09090A" stop-opacity="0.501961"/>
<stop offset="0.5" stop-color="#1A1B1C"/>
<stop offset="0.75" stop-color="#09090A" stop-opacity="0.501961"/>
<stop offset="1" stop-color="#1A1B1C"/>
</linearGradient>
<linearGradient id="paint2_linear_777_21550" x1="247.5" y1="0" x2="247.5" y2="864" gradientUnits="userSpaceOnUse">
<stop stop-color="#1A1B1C"/>
<stop offset="0.25" stop-color="#09090A" stop-opacity="0.501961"/>
<stop offset="0.5" stop-color="#1A1B1C"/>
<stop offset="0.75" stop-color="#09090A" stop-opacity="0.501961"/>
<stop offset="1" stop-color="#1A1B1C"/>
</linearGradient>
<linearGradient id="paint3_linear_777_21550" x1="370.5" y1="0" x2="370.5" y2="864" gradientUnits="userSpaceOnUse">
<stop stop-color="#1A1B1C"/>
<stop offset="0.25" stop-color="#09090A" stop-opacity="0.501961"/>
<stop offset="0.5" stop-color="#1A1B1C"/>
<stop offset="0.75" stop-color="#09090A" stop-opacity="0.501961"/>
<stop offset="1" stop-color="#1A1B1C"/>
</linearGradient>
<linearGradient id="paint4_linear_777_21550" x1="493.5" y1="0" x2="493.5" y2="864" gradientUnits="userSpaceOnUse">
<stop stop-color="#1A1B1C"/>
<stop offset="0.25" stop-color="#09090A" stop-opacity="0.501961"/>
<stop offset="0.5" stop-color="#1A1B1C"/>
<stop offset="0.75" stop-color="#09090A" stop-opacity="0.501961"/>
<stop offset="1" stop-color="#1A1B1C"/>
</linearGradient>
<linearGradient id="paint5_linear_777_21550" x1="616.5" y1="0" x2="616.5" y2="864" gradientUnits="userSpaceOnUse">
<stop stop-color="#1A1B1C"/>
<stop offset="0.25" stop-color="#09090A" stop-opacity="0.501961"/>
<stop offset="0.5" stop-color="#1A1B1C"/>
<stop offset="0.75" stop-color="#09090A" stop-opacity="0.501961"/>
<stop offset="1" stop-color="#1A1B1C"/>
</linearGradient>
<linearGradient id="paint6_linear_777_21550" x1="739.5" y1="0" x2="739.5" y2="864" gradientUnits="userSpaceOnUse">
<stop stop-color="#1A1B1C"/>
<stop offset="0.25" stop-color="#09090A" stop-opacity="0.501961"/>
<stop offset="0.5" stop-color="#1A1B1C"/>
<stop offset="0.75" stop-color="#09090A" stop-opacity="0.501961"/>
<stop offset="1" stop-color="#1A1B1C"/>
</linearGradient>
<linearGradient id="paint7_linear_777_21550" x1="863.5" y1="0" x2="863.5" y2="864" gradientUnits="userSpaceOnUse">
<stop stop-color="#1A1B1C"/>
<stop offset="0.25" stop-color="#09090A" stop-opacity="0.501961"/>
<stop offset="0.5" stop-color="#1A1B1C"/>
<stop offset="0.75" stop-color="#09090A" stop-opacity="0.501961"/>
<stop offset="1" stop-color="#1A1B1C"/>
</linearGradient>
</defs>
</svg>
